# xmcd CD database file
#
# Track frame offsets:
#	150
#	19463
#	42948
#	60488
#	88330
#	108795
#	136583
#	161773
#
# Disc length: 2370 seconds
#
# Revision: 1
# Processed by: cddbd v1.5.1PL0 Copyright (c) Steve Scherf et al.
# Submitted via: CDex 1.51
#
DISCID=62094008
DTITLE=山下達郎 - FOR YOU
DYEAR=1900
DGENRE=New Age
TTITLE0=ＳＰＡＲＫＬＥ
TTITLE1=ＭＵＳＩＣ　ＢＯＯＫ
TTITLE2=ＭＯＲＮＩＮＧ　ＧＬＯＲＹ
TTITLE3=ＦＵＴＡＲＩ
TTITLE4=ＬＯＶＥＬＡＮＤ，ＩＳＬＡＮＤ
TTITLE5=ＬＯＶＥ　ＴＡＬＫＩＮ’
TTITLE6=ＨＥＹ　ＲＥＰＯＲＴＥＲ！
TTITLE7=ＹＯＵＲ　ＥＹＥＳ
EXTD=
EXTT0=
EXTT1=
EXTT2=
EXTT3=
EXTT4=
EXTT5=
EXTT6=
EXTT7=
PLAYORDER=
